<mxfile host="app.diagrams.net" modified="2023-10-25T18:58:16.777Z" agent="Mozilla/5.0 (Windows NT 10.0; Win64; x64) AppleWebKit/537.36 (KHTML, like Gecko) Chrome/118.0.0.0 Safari/537.36" etag="KkBU5aTPvJihQQZwMVH4" version="22.0.8" type="device">
  <diagram name="PÃ¡gina-1" id="SqYFFbl0ttQnpbdkQNhH">
    <mxGraphModel dx="989" dy="527" grid="1" gridSize="10" guides="1" tooltips="1" connect="1" arrows="1" fold="1" page="1" pageScale="1" pageWidth="827" pageHeight="1169" math="0" shadow="0">
      <root>
        <mxCell id="0" />
        <mxCell id="1" parent="0" />
        <mxCell id="9eN76Ij0cTDsH5-mar7y-3" value="" style="edgeStyle=orthogonalEdgeStyle;rounded=0;orthogonalLoop=1;jettySize=auto;html=1;" edge="1" parent="1" source="9eN76Ij0cTDsH5-mar7y-1" target="9eN76Ij0cTDsH5-mar7y-2">
          <mxGeometry relative="1" as="geometry" />
        </mxCell>
        <mxCell id="9eN76Ij0cTDsH5-mar7y-1" value="INICIO" style="rounded=1;whiteSpace=wrap;html=1;" vertex="1" parent="1">
          <mxGeometry x="90" y="20" width="120" height="60" as="geometry" />
        </mxCell>
        <mxCell id="9eN76Ij0cTDsH5-mar7y-5" value="" style="edgeStyle=orthogonalEdgeStyle;rounded=0;orthogonalLoop=1;jettySize=auto;html=1;" edge="1" parent="1" source="9eN76Ij0cTDsH5-mar7y-2" target="9eN76Ij0cTDsH5-mar7y-4">
          <mxGeometry relative="1" as="geometry" />
        </mxCell>
        <mxCell id="9eN76Ij0cTDsH5-mar7y-2" value="Configuramos los pines RB0-RB3 como salida" style="rounded=0;whiteSpace=wrap;html=1;" vertex="1" parent="1">
          <mxGeometry x="90" y="110" width="120" height="60" as="geometry" />
        </mxCell>
        <mxCell id="9eN76Ij0cTDsH5-mar7y-4" value="Llamo ENCENDER_POR_SEGUNDO" style="rounded=0;whiteSpace=wrap;html=1;" vertex="1" parent="1">
          <mxGeometry x="57.5" y="240" width="185" height="60" as="geometry" />
        </mxCell>
        <mxCell id="9eN76Ij0cTDsH5-mar7y-8" value="" style="edgeStyle=orthogonalEdgeStyle;rounded=0;orthogonalLoop=1;jettySize=auto;html=1;" edge="1" parent="1" source="9eN76Ij0cTDsH5-mar7y-6" target="9eN76Ij0cTDsH5-mar7y-7">
          <mxGeometry relative="1" as="geometry" />
        </mxCell>
        <mxCell id="9eN76Ij0cTDsH5-mar7y-6" value="ENCENDER_POR_SEGUNDO" style="shape=process;whiteSpace=wrap;html=1;backgroundOutline=1;" vertex="1" parent="1">
          <mxGeometry x="340" y="20" width="220" height="60" as="geometry" />
        </mxCell>
        <mxCell id="9eN76Ij0cTDsH5-mar7y-10" value="" style="edgeStyle=orthogonalEdgeStyle;rounded=0;orthogonalLoop=1;jettySize=auto;html=1;" edge="1" parent="1" source="9eN76Ij0cTDsH5-mar7y-7" target="9eN76Ij0cTDsH5-mar7y-9">
          <mxGeometry relative="1" as="geometry" />
        </mxCell>
        <mxCell id="9eN76Ij0cTDsH5-mar7y-7" value="Llamo ENCENDER_TODOS&lt;br&gt;(todos los pines en alto)" style="whiteSpace=wrap;html=1;" vertex="1" parent="1">
          <mxGeometry x="382.5" y="120" width="135" height="70" as="geometry" />
        </mxCell>
        <mxCell id="9eN76Ij0cTDsH5-mar7y-12" value="" style="edgeStyle=orthogonalEdgeStyle;rounded=0;orthogonalLoop=1;jettySize=auto;html=1;" edge="1" parent="1" source="9eN76Ij0cTDsH5-mar7y-9" target="9eN76Ij0cTDsH5-mar7y-11">
          <mxGeometry relative="1" as="geometry" />
        </mxCell>
        <mxCell id="9eN76Ij0cTDsH5-mar7y-9" value="Llamo DELAY1s&lt;br&gt;(Retardo de 1s)" style="whiteSpace=wrap;html=1;" vertex="1" parent="1">
          <mxGeometry x="390" y="230" width="120" height="60" as="geometry" />
        </mxCell>
        <mxCell id="9eN76Ij0cTDsH5-mar7y-14" value="" style="edgeStyle=orthogonalEdgeStyle;rounded=0;orthogonalLoop=1;jettySize=auto;html=1;" edge="1" parent="1" source="9eN76Ij0cTDsH5-mar7y-11" target="9eN76Ij0cTDsH5-mar7y-13">
          <mxGeometry relative="1" as="geometry" />
        </mxCell>
        <mxCell id="9eN76Ij0cTDsH5-mar7y-11" value="Set 0 todo PORTB&lt;br&gt;(todos los pines en bajo)" style="whiteSpace=wrap;html=1;" vertex="1" parent="1">
          <mxGeometry x="380" y="330" width="140" height="60" as="geometry" />
        </mxCell>
        <mxCell id="9eN76Ij0cTDsH5-mar7y-15" style="edgeStyle=orthogonalEdgeStyle;rounded=0;orthogonalLoop=1;jettySize=auto;html=1;entryX=1;entryY=0.5;entryDx=0;entryDy=0;" edge="1" parent="1" source="9eN76Ij0cTDsH5-mar7y-13" target="9eN76Ij0cTDsH5-mar7y-6">
          <mxGeometry relative="1" as="geometry">
            <Array as="points">
              <mxPoint x="600" y="460" />
              <mxPoint x="600" y="50" />
            </Array>
          </mxGeometry>
        </mxCell>
        <mxCell id="9eN76Ij0cTDsH5-mar7y-13" value="Llamo DELAY1s&lt;br style=&quot;border-color: var(--border-color);&quot;&gt;(Retardo de 1s)" style="whiteSpace=wrap;html=1;" vertex="1" parent="1">
          <mxGeometry x="380" y="430" width="140" height="60" as="geometry" />
        </mxCell>
      </root>
    </mxGraphModel>
  </diagram>
</mxfile>
